<svg width="50" height="50" viewBox="0 0 50 50" fill="none" xmlns="http://www.w3.org/2000/svg">
<path d="M46.4287 25C46.4287 13.1661 36.834 3.57141 25.0001 3.57141C13.1662 3.57141 3.57155 13.1661 3.57155 25C3.57155 36.8339 13.1662 46.4286 25.0001 46.4286C28.5106 46.4335 31.9681 45.5724 35.0662 43.9214L43.584 46.3446C43.9664 46.4532 44.3708 46.4578 44.7556 46.3578C45.1403 46.2578 45.4913 46.0569 45.7724 45.7758C46.0534 45.4947 46.2544 45.1437 46.3544 44.759C46.4544 44.3743 46.4498 43.9699 46.3412 43.5875L43.9198 35.0696C45.5719 31.9707 46.4337 28.5118 46.4287 25ZM33.0358 20.9821C33.0358 21.7214 32.4358 22.3214 31.6965 22.3214H18.3037C17.9485 22.3214 17.6078 22.1803 17.3567 21.9291C17.1055 21.678 16.9644 21.3373 16.9644 20.9821C16.9644 20.6269 17.1055 20.2863 17.3567 20.0351C17.6078 19.7839 17.9485 19.6428 18.3037 19.6428H31.6965C32.0517 19.6428 32.3924 19.7839 32.6436 20.0351C32.8947 20.2863 33.0358 20.6269 33.0358 20.9821ZM31.6965 27.6786C32.0517 27.6786 32.3924 27.8197 32.6436 28.0708C32.8947 28.322 33.0358 28.6626 33.0358 29.0178C33.0358 29.373 32.8947 29.7137 32.6436 29.9649C32.3924 30.216 32.0517 30.3571 31.6965 30.3571H23.6608C23.3056 30.3571 22.965 30.216 22.7138 29.9649C22.4627 29.7137 22.3215 29.373 22.3215 29.0178C22.3215 28.6626 22.4627 28.322 22.7138 28.0708C22.965 27.8197 23.3056 27.6786 23.6608 27.6786H31.6965Z" fill="#A57881"/>
</svg>
