<svg width="50" height="50" viewBox="0 0 50 50" fill="none" xmlns="http://www.w3.org/2000/svg">
<path d="M17.1874 10.9375C17.1874 8.8655 18.0105 6.87836 19.4757 5.41323C20.9408 3.9481 22.9279 3.125 24.9999 3.125C27.0719 3.125 29.0591 3.9481 30.5242 5.41323C31.9893 6.87836 32.8124 8.8655 32.8124 10.9375C32.8124 13.0095 31.9893 14.9966 30.5242 16.4618C29.0591 17.9269 27.0719 18.75 24.9999 18.75C22.9279 18.75 20.9408 17.9269 19.4757 16.4618C18.0105 14.9966 17.1874 13.0095 17.1874 10.9375ZM20.3124 21.875C19.0692 21.875 17.877 22.3689 16.9979 23.2479C16.1188 24.127 15.6249 25.3193 15.6249 26.5625V34.375C15.6249 36.8614 16.6127 39.246 18.3708 41.0041C20.129 42.7623 22.5135 43.75 24.9999 43.75C27.4863 43.75 29.8709 42.7623 31.6291 41.0041C33.3872 39.246 34.3749 36.8614 34.3749 34.375V26.5625C34.3749 25.3193 33.8811 24.127 33.002 23.2479C32.1229 22.3689 30.9306 21.875 29.6874 21.875H20.3124ZM12.6749 24.9062C12.5578 25.4505 12.4991 26.0058 12.4999 26.5625V34.375C12.4996 36.0475 12.835 37.7031 13.4861 39.2436C14.1372 40.7842 15.0909 42.1784 16.2906 43.3438L15.9781 43.4312C13.5771 44.0736 11.0192 43.7363 8.86684 42.4934C6.71446 41.2505 5.14373 39.2038 4.49994 36.8031L3.28432 32.2719C3.12507 31.6772 3.08451 31.057 3.16495 30.4467C3.24539 29.8364 3.44526 29.2479 3.75315 28.7148C4.06104 28.1818 4.47091 27.7146 4.95937 27.3399C5.44782 26.9652 6.00529 26.6905 6.59994 26.5312L12.6749 24.9062ZM33.7062 43.3438C34.9065 42.1787 35.8607 40.7846 36.5124 39.244C37.164 37.7034 37.4998 36.0477 37.4999 34.375V26.5625C37.4979 25.9917 37.4395 25.4396 37.3249 24.9062L43.3968 26.5312C43.9918 26.6904 44.5496 26.9653 45.0383 27.3402C45.527 27.7151 45.937 28.1826 46.2449 28.716C46.5529 29.2494 46.7526 29.8383 46.8329 30.449C46.9131 31.0597 46.8722 31.6801 46.7124 32.275L45.4999 36.8031C45.1743 38.0184 44.6074 39.1557 43.8329 40.1473C43.0585 41.1388 42.0924 41.9644 40.9921 42.5747C39.8919 43.185 38.6801 43.5676 37.4289 43.6998C36.1777 43.8319 34.9096 43.7108 33.7062 43.3438ZM3.12494 15.625C3.12494 13.9674 3.78342 12.3777 4.95552 11.2056C6.12763 10.0335 7.71734 9.375 9.37494 9.375C11.0325 9.375 12.6223 10.0335 13.7944 11.2056C14.9665 12.3777 15.6249 13.9674 15.6249 15.625C15.6249 17.2826 14.9665 18.8723 13.7944 20.0444C12.6223 21.2165 11.0325 21.875 9.37494 21.875C7.71734 21.875 6.12763 21.2165 4.95552 20.0444C3.78342 18.8723 3.12494 17.2826 3.12494 15.625ZM34.3749 15.625C34.3749 13.9674 35.0334 12.3777 36.2055 11.2056C37.3776 10.0335 38.9673 9.375 40.6249 9.375C42.2825 9.375 43.8723 10.0335 45.0444 11.2056C46.2165 12.3777 46.8749 13.9674 46.8749 15.625C46.8749 17.2826 46.2165 18.8723 45.0444 20.0444C43.8723 21.2165 42.2825 21.875 40.6249 21.875C38.9673 21.875 37.3776 21.2165 36.2055 20.0444C35.0334 18.8723 34.3749 17.2826 34.3749 15.625Z" fill="#A57881"/>
</svg>
