<svg width="50" height="50" viewBox="0 0 50 50" fill="none" xmlns="http://www.w3.org/2000/svg">
<path fill-rule="evenodd" clip-rule="evenodd" d="M5.62155 3.20714C5.62155 2.49673 5.33934 1.81543 4.83701 1.3131C4.33468 0.81077 3.65338 0.528564 2.94298 0.528564C2.23257 0.528564 1.55127 0.81077 1.04894 1.3131C0.54661 1.81543 0.264404 2.49673 0.264404 3.20714V46.7929C0.264404 48.2714 1.4644 49.4714 2.94298 49.4714H46.5287C47.2391 49.4714 47.9204 49.1892 48.4227 48.6869C48.9251 48.1846 49.2073 47.5033 49.2073 46.7929C49.2073 46.0825 48.9251 45.4011 48.4227 44.8988C47.9204 44.3965 47.2391 44.1143 46.5287 44.1143H5.61798L5.62155 3.20714ZM36.5037 8.68214C36.114 8.40423 35.6724 8.20749 35.2051 8.10362C34.7379 7.99975 34.2545 7.99086 33.7838 8.07748C33.313 8.1641 32.8645 8.34446 32.4648 8.60785C32.0652 8.87124 31.7225 9.21228 31.4573 9.61071L20.5 29.5L14 22C13.6682 21.6679 12.5121 20.8517 12.3745 20.7946C12.2368 20.7376 11.5 20.5 11.5 20.5H11C11 20.5 10.109 20.7439 10.109 20.7946C9.77699 21.1265 9.51354 21.5204 9.33375 21.9541C9.15395 22.3877 9.06132 22.8525 9.06116 23.3219C9.06099 23.7914 9.15329 24.2562 9.33278 24.69C9.51227 25.1238 9.77544 25.5179 10.1073 25.85L18.4894 34.2286C18.863 34.6028 19.315 34.8895 19.8128 35.0678C20.3106 35.2461 20.8417 35.3117 21.368 35.2597C21.8942 35.2078 22.4023 35.0396 22.8557 34.7674C23.309 34.4952 23.6962 34.1258 23.9894 33.6857L35.2051 14L45.5 20.7964C46.271 21.3467 47 22 47.5 22.0464C48.4968 22.139 49 21.5 49 21.5C49.5503 20.729 49.8398 20.3173 49.6837 19.383C49.5277 18.4487 49.0069 17.6146 48.2358 17.0643L36.5037 8.68214Z" fill="#A57881"/>
</svg>
